# xmcd
#
# Track frame offsets: 
#        183
#        7115
#        34760
#        46025
#        72570
#        88178
#        114525
#        127205
#        143955
#        167088
#        176498
#
# Disc length: 2413 seconds
#
# Revision: 1
# Processed by: cddbd v1.5.2PL0 Copyright (c) Steve Scherf et al.
# Submitted via: ExactAudioCopy v1.0b2
#
DISCID=9d096b0b
DTITLE=Michel Doneda - Daunik Lazro - General Gramofon
DYEAR=1988
DGENRE=Jazz
TTITLE0=Le pas de Nel
TTITLE1=Bleu de Siam
TTITLE2=Fla flu
TTITLE3=Jelenia polska
TTITLE4=Mothers
TTITLE5=Paradi parada
TTITLE6=Beranca
TTITLE7=Oro
TTITLE8=Le serpent d'avril
TTITLE9=De nous a Lee
TTITLE10=Hi Beck
EXTD=YEAR: 1988
EXTT0=
EXTT1=
EXTT2=
EXTT3=
EXTT4=
EXTT5=
EXTT6=
EXTT7=
EXTT8=
EXTT9=
EXTT10=
PLAYORDER=
